<svg width="225" height="62" viewBox="0 0 225 62" fill="none" xmlns="http://www.w3.org/2000/svg">
<g clip-path="url(#clip0_431_926)">
<path d="M148.13 0.525879H156.278V12.28H165.965V0.525879H174.113V31.2555H165.965V18.0942H156.278V31.2555H148.13V0.525879Z" fill="#18A5F4"/>
<path d="M177.757 0.525879H199.421V6.34H185.948V12.68H198.665V18.5163H185.948V25.471H199.902V31.2555H177.757V0.525879Z" fill="#18A5F4"/>
<path d="M71.9543 54.1713C69.9741 54.6193 67.9481 54.833 65.918 54.8082C59.2521 54.8082 56.7191 51.105 56.7191 46.0685C56.7191 41.0321 59.5114 37.3733 65.3625 37.3733C70.5915 37.3733 73.7541 40.2026 73.7541 45.002V47.0684H62.7406C62.7406 49.6385 64.9626 50.6013 67.0734 50.6013C68.9543 50.51 70.8113 50.1406 72.5839 49.5052L71.9543 54.1713ZM67.9326 44.0392C67.9326 42.069 67.0142 41.0766 65.4958 41.0766C63.7849 41.0766 62.8962 42.5579 62.7406 44.0392H67.9326Z" fill="#004E7A"/>
<path d="M80.9089 40.1729L80.9755 40.2396C81.7204 39.3096 82.672 38.5663 83.7546 38.0687C84.8372 37.5711 86.021 37.333 87.2118 37.3733C90.6336 37.3733 93.3592 38.8546 93.3592 43.1356V54.4009H87.3377V45.513C87.3377 44.0317 86.7082 42.5504 84.8047 42.5504C83.1901 42.5504 81.2274 43.7133 81.2274 48.5793V54.3786H75.2133V37.7732H80.9089V40.1729Z" fill="#004E7A"/>
<path d="M106.78 42.1358H103.203V47.7721C103.203 49.2016 103.58 50.0385 104.973 50.0385C105.736 50.0199 106.489 49.8618 107.195 49.5719L106.528 54.2676C105.198 54.6309 103.825 54.8103 102.447 54.8009C99.403 54.8009 97.1588 53.9344 97.1588 50.2681V42.121H94.8109V37.7733H97.1588V34.8107L103.173 33.4775V37.7733H106.75L106.78 42.1358Z" fill="#004E7A"/>
<path d="M122.741 54.1713C120.755 54.6179 118.724 54.8292 116.69 54.8008C110.024 54.8008 107.506 51.1346 107.506 46.0686C107.506 41.0025 110.298 37.3733 116.149 37.3733C121.378 37.3733 124.541 40.2026 124.541 45.002V47.0684H113.527C113.527 49.6385 115.749 50.6013 117.86 50.6013C119.731 50.5071 121.578 50.1377 123.341 49.5052L122.741 54.1713ZM118.719 44.0392C118.719 42.069 117.801 41.0766 116.282 41.0766C114.571 41.0766 113.683 42.5579 113.527 44.0392H118.719Z" fill="#004E7A"/>
<path d="M131.984 39.573L132.043 39.6396C132.999 38.3065 134.102 37.3732 135.88 37.3732C136.318 37.3621 136.755 37.417 137.176 37.5362L137.621 42.9059C137.079 42.7162 136.513 42.604 135.939 42.5726C134.043 42.5726 132.236 43.7354 132.236 46.8684V54.4008H126.222V37.7732H131.984V39.573Z" fill="#004E7A"/>
<path d="M138.761 38.2399C141.865 37.9066 144.205 37.3733 147.531 37.3733C149.049 37.3733 156.9 37.3733 156.9 46.5352C156.9 50.3717 155.063 54.8008 150.508 54.8008C148.416 54.7947 146.39 54.0646 144.775 52.7344V62H138.761V38.2399ZM144.775 46.1352C144.775 48.0683 145.82 50.268 147.975 50.268C150.13 50.268 150.886 47.8017 150.886 46.1056C150.886 43.4392 149.523 41.9061 147.182 41.9061C146.369 41.9332 145.561 42.055 144.775 42.269V46.1352Z" fill="#004E7A"/>
<path d="M164.373 39.573L164.44 39.6396C165.388 38.3064 166.499 37.3732 168.269 37.3732C168.707 37.3611 169.144 37.4161 169.565 37.5362L170.009 42.9059C169.47 42.7168 168.906 42.6046 168.335 42.5726C166.432 42.5726 164.632 43.7354 164.632 46.8684V54.4008H158.618V37.7732H164.38L164.373 39.573Z" fill="#004E7A"/>
<path d="M171.15 37.7732H177.164V54.4008H171.15V37.7732Z" fill="#004E7A"/>
<path d="M179.445 49.2385C180.897 49.9232 182.465 50.3302 184.067 50.4384C184.763 50.4384 186.193 50.4384 186.193 49.4385C186.193 47.735 180.267 46.1352 180.267 41.869C180.267 39.6027 181.689 37.3733 186.444 37.3733C188.262 37.4114 190.072 37.5997 191.859 37.9362L192.392 42.506C191.24 42.0229 190.004 41.7712 188.755 41.7654C187.644 41.7654 186.474 41.7654 186.474 42.669C186.474 44.4317 192.399 45.6982 192.399 50.3643C192.399 53.6973 188.592 54.8082 185.778 54.8082C183.88 54.7775 181.99 54.5441 180.141 54.112L179.445 49.2385Z" fill="#004E7A"/>
<path d="M208.864 54.1713C206.881 54.6173 204.852 54.8286 202.82 54.8008C196.154 54.8008 193.636 51.1346 193.636 46.0685C193.636 41.0025 196.421 37.3733 202.28 37.3733C207.501 37.3733 210.671 40.2026 210.671 45.002V47.0684H199.613C199.613 49.6385 201.835 50.6013 203.953 50.6013C205.822 50.5064 207.666 50.137 209.427 49.5052L208.864 54.1713ZM204.842 44.0392C204.842 42.069 203.924 41.0766 202.405 41.0766C200.695 41.0766 199.813 42.5579 199.65 44.0392H204.842Z" fill="#004E7A"/>
<path d="M211.649 49.2385C213.101 49.9242 214.668 50.3312 216.27 50.4384C216.967 50.4384 218.389 50.4384 218.389 49.4385C218.389 47.735 212.464 46.1352 212.464 41.869C212.464 39.6027 213.886 37.3733 218.633 37.3733C220.45 37.4106 222.261 37.5989 224.047 37.9362L224.588 42.506C223.434 42.0229 222.195 41.7712 220.944 41.7654C219.84 41.7654 218.663 41.7654 218.663 42.669C218.663 44.4317 224.588 45.6982 224.588 50.3643C224.588 53.6973 220.788 54.8082 217.974 54.8082C216.076 54.7779 214.186 54.5445 212.338 54.112L211.649 49.2385Z" fill="#004E7A"/>
<path d="M56.8302 0.525879H64.9774V12.28H74.6651V0.525879H82.8123V31.2555H74.6651V18.0942H65.0144V31.2555H56.8672L56.8302 0.525879Z" fill="#18A5F4"/>
<path d="M112.683 19.5903C112.683 27.9967 107.224 31.7814 99.2178 31.7814C91.2114 31.7814 85.7454 27.9967 85.7454 19.5903V0.525879H93.937V18.2201C93.937 22.2714 95.0331 25.7081 99.2178 25.7081C103.403 25.7081 104.499 22.2714 104.499 18.2201V0.525879H112.646L112.683 19.5903Z" fill="#18A5F4"/>
<path d="M144.679 30.3667C140.796 31.3584 136.799 31.8316 132.792 31.774C124.644 31.774 115.142 27.6337 115.142 16.0129C115.142 4.39207 123.289 0 134.554 0C136.584 0 140.85 0.222196 143.842 1.3628L143.183 8.02867C140.895 6.74998 138.323 6.06738 135.702 6.04372C129.036 6.04372 123.593 8.82117 123.593 15.9907C123.593 22.027 127.866 25.6784 133.851 25.6784C134.844 25.7057 135.833 25.5266 136.754 25.1526V19.1014H131.955V13.3317H144.679V30.3667Z" fill="#18A5F4"/>
<path d="M202.798 23.7009C205.406 25.0593 208.308 25.7561 211.249 25.7303C213.849 25.7303 216.315 25.2044 216.315 22.7677C216.315 17.0424 201.791 20.6494 201.791 9.43593C201.791 2.0294 209.005 0.0148303 215.167 0.0148303C217.852 -0.0176982 220.526 0.369646 223.092 1.16284L222.566 7.49542C220.417 6.54938 218.092 6.06976 215.745 6.08818C213.671 6.08818 210.242 6.26593 210.242 8.9471C210.242 13.9243 224.766 10.5765 224.766 21.6715C224.766 29.6409 218.1 31.7962 211.249 31.7962C208.15 31.7996 205.067 31.3556 202.094 30.4779L202.798 23.7009Z" fill="#18A5F4"/>
<path d="M0 0.785156V22.1085H5.79931V6.83628H17.5312V22.1085H32.9887V6.83628H44.7206V22.1085H50.5569V0.785156H0Z" fill="#004E7A"/>
<path d="M44.5955 26.707V48.8599H32.8635V31.5509H17.4135V48.8599H5.68159V26.707H0.193359V54.2815H50.4836V26.707H44.5955Z" fill="#18A5F4"/>
</g>
<defs>
<clipPath id="clip0_431_926">
<rect width="224.766" height="62" fill="white"/>
</clipPath>
</defs>
</svg>
