<svg width="20" height="20" viewBox="0 0 20 20" fill="none" xmlns="http://www.w3.org/2000/svg">
<g clip-path="url(#clip0_431_547)">
<path d="M13.1822 0.119407L3.58991 9.71145C3.43708 9.86428 3.43708 10.1349 3.58991 10.2877L13.1826 19.8806C13.259 19.957 13.3627 20 13.4707 20C13.5787 20 13.6824 19.957 13.7588 19.8806L16.4052 17.2342C16.4849 17.1545 16.5247 17.0504 16.5247 16.946C16.5247 16.8417 16.4849 16.7376 16.4052 16.6579L9.74714 9.99979L16.405 3.34148C16.5581 3.18865 16.5579 2.91804 16.405 2.76521L13.7586 0.119407C13.5993 -0.039944 13.3413 -0.039944 13.1822 0.119407Z" fill="#00AC83"/>
</g>
<defs>
<clipPath id="clip0_431_547">
<rect width="20" height="20" fill="white" transform="translate(20 20) rotate(-180)"/>
</clipPath>
</defs>
</svg>
