<svg width="44" height="44" viewBox="0 0 44 44" fill="none" xmlns="http://www.w3.org/2000/svg">
<path d="M21.6864 21.195C24.5982 21.195 27.1193 20.1506 29.1798 18.0901C31.2396 16.03 32.2843 13.5093 32.2843 10.5971C32.2843 7.68602 31.2399 5.16497 29.1794 3.10415C27.119 1.04434 24.5979 0 21.6864 0C18.7743 0 16.2536 1.04434 14.1934 3.10449C12.1333 5.16463 11.0886 7.68568 11.0886 10.5971C11.0886 13.5093 12.1333 16.0303 14.1934 18.0905C16.2543 20.1503 18.7753 21.195 21.6864 21.195ZM16.0169 4.92763C17.5977 3.34686 19.4521 2.57846 21.6864 2.57846C23.9205 2.57846 25.7752 3.34686 27.3563 4.92763C28.9371 6.50875 29.7058 8.36345 29.7058 10.5971C29.7058 12.8315 28.9371 14.6859 27.3563 16.267C25.7752 17.8481 23.9205 18.6165 21.6864 18.6165C19.4527 18.6165 17.5984 17.8478 16.0169 16.267C14.4358 14.6862 13.6671 12.8315 13.6671 10.5971C13.6671 8.36345 14.4358 6.50875 16.0169 4.92763Z" fill="white"/>
<path d="M40.2298 33.8338C40.1703 32.9764 40.0502 32.0412 39.8733 31.0536C39.6947 30.0586 39.4647 29.118 39.1895 28.2583C38.9048 27.3697 38.5184 26.4922 38.04 25.6513C37.5442 24.7785 36.9615 24.0185 36.3075 23.3931C35.6237 22.7388 34.7865 22.2128 33.8184 21.8291C32.8536 21.4474 31.7844 21.2541 30.6407 21.2541C30.1915 21.2541 29.7572 21.4384 28.9183 21.9845C28.402 22.3212 27.7981 22.7106 27.124 23.1413C26.5476 23.5086 25.7668 23.8527 24.8023 24.1642C23.8614 24.4687 22.906 24.6231 21.9627 24.6231C21.0201 24.6231 20.0647 24.4687 19.1231 24.1642C18.1596 23.853 17.3785 23.5089 16.8031 23.1417C16.1354 22.715 15.5312 22.3256 15.0072 21.9842C14.1689 21.438 13.7345 21.2537 13.2854 21.2537C12.1413 21.2537 11.0725 21.4474 10.1081 21.8294C9.14058 22.2125 8.30303 22.7385 7.61855 23.3934C6.96462 24.0192 6.38186 24.7788 5.88638 25.6513C5.40869 26.4922 5.02197 27.3694 4.7373 28.2586C4.46237 29.1183 4.23242 30.0586 4.05383 31.0536C3.87659 32.0399 3.75674 32.9754 3.69733 33.8348C3.63892 34.6751 3.60938 35.5495 3.60938 36.4331C3.60938 38.7299 4.33951 40.5893 5.77929 41.9606C7.20129 43.3138 9.08251 43.9999 11.3709 43.9999H32.5572C34.8449 43.9999 36.7261 43.3138 38.1485 41.9606C39.5886 40.5903 40.3187 38.7302 40.3187 36.4327C40.3184 35.5462 40.2885 34.6717 40.2298 33.8338ZM36.3706 40.0925C35.431 40.9867 34.1836 41.4215 32.5568 41.4215H11.3709C9.74382 41.4215 8.49639 40.9867 7.55712 40.0928C6.63565 39.2156 6.18783 38.0182 6.18783 36.4331C6.18783 35.6086 6.21502 34.7946 6.2694 34.0131C6.32244 33.2463 6.43087 32.4041 6.59167 31.5091C6.75045 30.6253 6.95254 29.7958 7.1929 29.0448C7.42352 28.3248 7.73806 27.6117 8.12814 26.9249C8.50042 26.2703 8.92876 25.7087 9.40142 25.2562C9.84353 24.8329 10.4008 24.4864 11.0574 24.2266C11.6647 23.9863 12.3471 23.8547 13.088 23.8349C13.1783 23.8829 13.3391 23.9745 13.5996 24.1444C14.1297 24.4898 14.7406 24.8839 15.416 25.3153C16.1774 25.8007 17.1583 26.2391 18.3302 26.6174C19.5283 27.0048 20.7502 27.2015 21.963 27.2015C23.1759 27.2015 24.3982 27.0048 25.5956 26.6178C26.7685 26.2388 27.749 25.8007 28.5114 25.3146C29.2026 24.8728 29.7964 24.4901 30.3265 24.1444C30.587 23.9748 30.7478 23.8829 30.8381 23.8349C31.5793 23.8547 32.2618 23.9863 32.8694 24.2266C33.5256 24.4864 34.0829 24.8332 34.525 25.2562C34.9977 25.7084 35.426 26.27 35.7983 26.9253C36.1887 27.6117 36.5036 28.3251 36.7339 29.0445C36.9746 29.7964 37.177 30.6256 37.3354 31.5088C37.4959 32.4054 37.6046 33.248 37.6577 34.0134V34.0141C37.7124 34.7925 37.7399 35.6063 37.7403 36.4331C37.7399 38.0186 37.2921 39.2156 36.3706 40.0925Z" fill="white"/>
</svg>
